<?xml version="1.0" encoding="UTF-8" standalone="no"?>
<!DOCTYPE svg PUBLIC "-//W3C//DTD SVG 1.1//EN" "http://www.w3.org/Graphics/SVG/1.1/DTD/svg11.dtd">
<svg width="100%" height="100%" viewBox="0 0 1024 1024" version="1.1" xmlns="http://www.w3.org/2000/svg" xmlns:xlink="http://www.w3.org/1999/xlink" xml:space="preserve" xmlns:serif="http://www.serif.com/" style="fill-rule:evenodd;clip-rule:evenodd;stroke-linejoin:round;stroke-miterlimit:2;">
    <g transform="matrix(1,0,0,1,-448,-28)">
        <g transform="matrix(-0.000331334,-4.16634,4.20417,-0.000334342,510.472,1432.82)">
            <path d="M280.498,98.854L148.078,98.854C121.017,98.854 99.079,76.917 99.079,49.855C99.079,22.794 121.017,0.856 148.078,0.856L280.498,0.856C307.56,0.856 329.497,22.794 329.497,49.855C329.497,76.917 307.56,98.854 280.498,98.854Z" style="fill:rgb(232,228,213);fill-rule:nonzero;stroke:rgb(172,172,172);stroke-width:1.19px;"/>
        </g>
        <g transform="matrix(-0.000325457,-4.09245,4.09245,-0.000325457,516.02,1425.93)">
            <path d="M195.948,49.855C195.948,75.496 175.162,96.282 149.521,96.282C123.88,96.282 103.094,75.496 103.094,49.855C103.094,24.214 123.88,3.428 149.521,3.428C175.162,3.428 195.948,24.214 195.948,49.855Z" style="fill:rgb(247,219,7);fill-rule:nonzero;"/>
        </g>
        <g transform="matrix(-0.000331333,-4.16632,4.20417,-0.000334342,499.114,1432.93)">
            <path d="M280.519,215.728L148.099,215.728C121.037,215.728 99.099,193.79 99.099,166.729C99.099,139.667 121.037,117.73 148.099,117.73L280.519,117.73C307.58,117.73 329.518,139.667 329.518,166.729C329.518,193.79 307.58,215.728 280.519,215.728Z" style="fill:rgb(232,228,213);fill-rule:nonzero;stroke:rgb(172,172,172);stroke-width:1.19px;"/>
        </g>
        <g transform="matrix(-0.000325457,-4.09245,4.09245,-0.000325457,517.761,1408.3)">
            <path d="M325.537,166.729C325.537,192.37 304.751,213.156 279.11,213.156C253.469,213.156 232.683,192.37 232.683,166.729C232.683,141.088 253.469,120.302 279.11,120.302C304.751,120.302 325.537,141.088 325.537,166.729Z" style="fill:rgb(218,6,51);fill-rule:nonzero;"/>
        </g>
        <g transform="matrix(4.16667,0,0,4.16667,96.9938,601.177)">
            <path d="M138.956,67.856L132.826,61.772L143.414,51.102L132.744,40.513L138.827,34.383L149.498,44.972L160.086,34.301L166.217,40.384L155.628,51.055L166.299,61.644L160.215,67.774L149.545,57.185L138.956,67.856Z" style="fill:rgb(73,73,73);fill-opacity:0.33;fill-rule:nonzero;"/>
        </g>
        <g transform="matrix(1,0,0,1,-35,-44.9961)">
            <path d="M1253.5,292.502L1253.5,230L1216.5,230L1216.5,292.502L1154,292.502L1154,329.498L1216.5,329.498L1216.5,392L1253.5,392L1253.5,329.498L1316,329.498L1316,292.502L1253.5,292.502Z" style="fill:rgb(73,73,73);fill-opacity:0.33;"/>
        </g>
        <g transform="matrix(-6.32427e-16,3.93702,-4.07612,-6.5482e-16,925.538,215.455)">
            <path d="M153.864,97.038C150.367,97.038 146.96,96.652 143.683,95.918C145.595,96.158 147.545,96.282 149.521,96.282C175.162,96.282 195.948,75.496 195.948,49.855C195.948,27.712 180.446,9.189 159.702,4.548C182.589,7.418 200.291,26.947 200.291,50.611C200.291,76.252 179.505,97.038 153.864,97.038Z" style="fill:rgb(73,73,73);fill-opacity:0.33;fill-rule:nonzero;"/>
        </g>
        <g transform="matrix(-6.32427e-16,3.93702,-4.07612,-6.5482e-16,1405.54,-332.545)">
            <path d="M153.864,97.038C150.367,97.038 146.96,96.652 143.683,95.918C145.595,96.158 147.545,96.282 149.521,96.282C175.162,96.282 195.948,75.496 195.948,49.855C195.948,27.712 180.446,9.189 159.702,4.548C182.589,7.418 200.291,26.947 200.291,50.611C200.291,76.252 179.505,97.038 153.864,97.038Z" style="fill:rgb(73,73,73);fill-opacity:0.33;fill-rule:nonzero;"/>
        </g>
    </g>
</svg>
